<?xml version="1.0" encoding="utf-8"?>
<!-- Generator: Adobe Illustrator 18.0.0, SVG Export Plug-In . SVG Version: 6.00 Build 0)  -->
<!DOCTYPE svg PUBLIC "-//W3C//DTD SVG 1.1//EN" "http://www.w3.org/Graphics/SVG/1.1/DTD/svg11.dtd">
<svg version="1.1" id="Layer_1" xmlns="http://www.w3.org/2000/svg" xmlns:xlink="http://www.w3.org/1999/xlink" x="0px" y="0px"
	 viewBox="0 0 350 182.3" enable-background="new 0 0 350 182.3" xml:space="preserve">
<g>
	<polygon fill="#FFFFFF" points="259.2,34.2 213.1,2 206.2,8.6 254.5,42.4 254.5,42.4 300.6,74.6 307.5,68 259.2,34.2 	"/>
	<polygon fill="#FFFFFF" points="189.3,24.8 237.6,58.6 244.5,52 196.2,18.2 	"/>
	<polygon fill="#FFFFFF" points="172.8,40.7 221,74.5 227.9,67.9 179.6,34.1 	"/>
	<polygon fill="#FFFFFF" points="269.3,24.6 317.5,58.4 324.4,51.8 276.1,18 	"/>
	<polygon fill="#FFFFFF" points="292.7,2.1 285.8,8.7 334.1,42.5 341,35.9 	"/>
	<polygon fill="#FFFFFF" points="334.2,119.5 334.2,129.5 332.9,129.5 332.9,119.5 329.5,119.5 329.5,118.2 337.5,118.2 
		337.5,119.5 	"/>
	<polygon fill="#FFFFFF" points="349.3,129.5 348,129.5 348,120.1 344.9,129.5 343.5,129.5 340.4,120.1 340.4,129.5 339,129.5 
		339,118.2 341,118.2 344.2,127.8 347.3,118.2 349.3,118.2 	"/>
	<path fill="#FFFFFF" d="M29,179.2c-4.1,0-7.8-0.7-11.2-2.1c-3.4-1.4-6.3-3.4-8.7-6.1c-2.4-2.7-4.3-5.9-5.6-9.8
		c-1.3-3.9-2-8.3-2-13.2c0-4.9,0.6-9.2,1.9-13c1.3-3.8,3.1-7.1,5.4-9.8c2.3-2.7,5.1-4.8,8.4-6.2c3.3-1.4,6.8-2.1,10.7-2.1
		c4,0,7.7,0.7,10.9,2.1c3.3,1.4,6,3.5,8.3,6.1c2.3,2.7,4.1,5.9,5.3,9.8c1.2,3.9,1.9,8.2,1.9,13.1v2.6H12c0.2,3.4,0.8,6.4,1.7,9
		c0.9,2.5,2.1,4.6,3.6,6.3c1.5,1.7,3.2,2.9,5.2,3.8c2,0.8,4.1,1.2,6.4,1.2c1.6,0,3.3-0.2,4.9-0.7c1.6-0.5,3.1-1.2,4.4-2.1
		c1.3-0.9,2.4-2,3.2-3.4c0.8-1.3,1.3-2.9,1.3-4.6h10.5c-0.4,3.1-1.3,5.8-2.7,8.2c-1.4,2.4-3.2,4.4-5.3,6c-2.1,1.6-4.6,2.9-7.4,3.7
		C35.2,178.8,32.2,179.2,29,179.2 M43.8,142.3c-0.8-5.6-2.6-9.9-5.4-12.8c-2.8-2.9-6.3-4.3-10.4-4.3c-2,0-3.9,0.4-5.6,1.1
		c-1.8,0.7-3.3,1.8-4.7,3.2c-1.4,1.4-2.5,3.2-3.5,5.3c-0.9,2.1-1.6,4.6-2,7.5H43.8z"/>
	<path fill="#FFFFFF" d="M75.5,125.9c2.5-3,5.1-5.3,7.9-6.8c2.8-1.5,5.8-2.2,8.8-2.2c12.7,0,19.1,7.3,19.1,22v38.9h-10.1v-38.4
		c0-2.4-0.2-4.5-0.6-6.3c-0.4-1.7-1-3.2-1.9-4.3c-0.8-1.1-1.9-1.9-3.2-2.4c-1.3-0.5-2.9-0.7-4.7-0.7c-5.1,0-10.2,3.2-15.4,9.5v42.6
		h-9.9v-59.4h9.9V125.9z"/>
	<path fill="#FFFFFF" d="M146,179.2c-15.3,0-23.4-6.4-24.2-19.2h10.1c0,7.2,4.7,10.8,14,10.8c2.1,0,3.9-0.2,5.5-0.7
		c1.6-0.5,2.9-1.1,4-2c1.1-0.8,1.9-1.8,2.4-3c0.5-1.1,0.8-2.4,0.8-3.8c0-1.4-0.2-2.6-0.6-3.4c-0.4-0.9-1.2-1.6-2.4-2.3
		c-1.2-0.7-2.9-1.3-5-2c-2.1-0.6-4.9-1.4-8.3-2.4c-3.3-0.9-6.2-1.7-8.6-2.6c-2.4-0.9-4.4-1.9-5.9-3.2c-1.6-1.2-2.7-2.8-3.4-4.6
		c-0.7-1.8-1.1-4.1-1.1-6.9c0-2.4,0.5-4.7,1.5-6.8c1-2.1,2.4-3.9,4.2-5.4c1.8-1.5,4-2.7,6.6-3.6c2.6-0.9,5.5-1.3,8.6-1.3
		c14.8,0,22.3,5.6,22.5,16.7h-9.9c-0.4-5.6-4.3-8.3-11.9-8.3c-1.7,0-3.2,0.2-4.7,0.5c-1.4,0.4-2.7,0.9-3.7,1.5
		c-1.1,0.7-1.9,1.5-2.5,2.5c-0.6,1-0.9,2.1-0.9,3.4c0,1.2,0.1,2.1,0.4,2.9c0.3,0.7,0.9,1.4,2,2.1c1,0.6,2.6,1.3,4.6,1.9
		c2,0.6,4.8,1.4,8.4,2.3c3.4,0.9,6.4,1.8,8.9,2.7c2.5,0.9,4.6,2.1,6.3,3.4c1.7,1.3,2.9,2.9,3.7,4.9c0.8,1.9,1.2,4.3,1.2,7.2
		c0,2.7-0.5,5.2-1.6,7.5c-1.1,2.3-2.6,4.3-4.5,6c-1.9,1.7-4.3,3-7.1,4C152.6,178.8,149.4,179.2,146,179.2"/>
	<path fill="#FFFFFF" d="M215.9,170.3c-5,6-10.6,9-16.9,9c-12.7,0-19.1-7.3-19.1-22v-38.9h10.1v38.3c0,2.5,0.2,4.6,0.6,6.3
		c0.4,1.7,1,3.1,1.9,4.2c0.8,1.1,1.9,1.9,3.2,2.4c1.3,0.5,2.9,0.7,4.7,0.7c5.6,0,10.7-3.2,15.4-9.5v-42.5h9.9v59.4h-9.9V170.3z"/>
	<path fill="#FFFFFF" d="M269.8,128c-1.4-0.5-3.4-0.7-6.1-0.7c-2.6,0-5,0.7-7.1,2.1c-2.2,1.4-4.2,3.5-6.1,6.3v42.1h-9.9v-59.4h9.9
		v8.2c4.2-6.5,9.1-9.7,14.7-9.7c1.3,0,2.8,0.2,4.5,0.5V128z"/>
	<path fill="#FFFFFF" d="M300.5,179.2c-4.1,0-7.8-0.7-11.2-2.1c-3.4-1.4-6.3-3.4-8.7-6.1c-2.4-2.7-4.3-5.9-5.6-9.8
		c-1.3-3.9-2-8.3-2-13.2c0-4.9,0.6-9.2,1.9-13c1.3-3.8,3.1-7.1,5.4-9.8c2.3-2.7,5.1-4.8,8.4-6.2c3.3-1.4,6.8-2.1,10.7-2.1
		c4,0,7.7,0.7,10.9,2.1c3.3,1.4,6,3.5,8.3,6.1c2.3,2.7,4.1,5.9,5.3,9.8c1.2,3.9,1.9,8.2,1.9,13.1v2.6h-42.4c0.2,3.4,0.8,6.4,1.7,9
		c0.9,2.5,2.1,4.6,3.6,6.3c1.5,1.7,3.2,2.9,5.2,3.8c2,0.8,4.1,1.2,6.4,1.2c1.6,0,3.3-0.2,4.9-0.7c1.6-0.5,3.1-1.2,4.4-2.1
		c1.3-0.9,2.4-2,3.2-3.4c0.8-1.3,1.3-2.9,1.3-4.6h10.5c-0.4,3.1-1.3,5.8-2.7,8.2c-1.4,2.4-3.2,4.4-5.3,6c-2.1,1.6-4.6,2.9-7.4,3.7
		C306.7,178.8,303.7,179.2,300.5,179.2 M315.3,142.3c-0.8-5.6-2.6-9.9-5.4-12.8c-2.8-2.9-6.3-4.3-10.4-4.3c-2,0-3.9,0.4-5.6,1.1
		c-1.8,0.7-3.3,1.8-4.7,3.2c-1.4,1.4-2.5,3.2-3.5,5.3c-0.9,2.1-1.6,4.6-2,7.5H315.3z"/>
</g>
</svg>
